<svg width="17" height="18" viewBox="0 0 17 18" fill="none" xmlns="http://www.w3.org/2000/svg">
<path d="M14.0999 8.58809L8.59835 1.14847C8.55157 1.08496 8.49179 1.03359 8.42355 0.998265C8.35531 0.962939 8.2804 0.94458 8.20449 0.94458C8.12858 0.94458 8.05367 0.962939 7.98543 0.998265C7.91719 1.03359 7.85741 1.08496 7.81063 1.14847L2.30904 8.58809C2.239 8.68025 2.20081 8.79512 2.20081 8.91357C2.20081 9.03202 2.239 9.1469 2.30904 9.23906L7.81063 16.6787C7.85741 16.7422 7.91719 16.7936 7.98543 16.8289C8.05367 16.8642 8.12858 16.8826 8.20449 16.8826C8.2804 16.8826 8.35531 16.8642 8.42355 16.8289C8.49179 16.7936 8.55157 16.7422 8.59835 16.6787L14.0999 9.23906C14.17 9.1469 14.2082 9.03202 14.2082 8.91357C14.2082 8.79512 14.17 8.68025 14.0999 8.58809ZM8.70463 10.7469V3.00838L12.9184 8.70766L8.70463 10.7469ZM7.70435 10.7469L3.49063 8.70766L7.70435 3.00838V10.7469ZM7.70435 11.916V14.8188L4.36588 10.3019L7.70435 11.916Z" fill="#4B32C2"/>
</svg>
