<svg width="21" height="21" viewBox="0 0 21 21" fill="none" xmlns="http://www.w3.org/2000/svg">
<path d="M10.9282 12.7983C12.3089 12.7983 13.4282 11.6791 13.4282 10.2983C13.4282 8.91763 12.3089 7.79834 10.9282 7.79834C9.54751 7.79834 8.42822 8.91763 8.42822 10.2983C8.42822 11.6791 9.54751 12.7983 10.9282 12.7983Z" fill="white"/>
<path d="M14.3657 2.48584H7.49072C6.3304 2.48584 5.2176 2.94678 4.39713 3.76725C3.57666 4.58772 3.11572 5.70052 3.11572 6.86084V13.7358C3.11572 14.8962 3.57666 16.009 4.39713 16.8294C5.2176 17.6499 6.3304 18.1108 7.49072 18.1108H14.3657C15.526 18.1108 16.6388 17.6499 17.4593 16.8294C18.2798 16.009 18.7407 14.8962 18.7407 13.7358V6.86084C18.7407 5.70052 18.2798 4.58772 17.4593 3.76725C16.6388 2.94678 15.526 2.48584 14.3657 2.48584ZM10.9282 14.0483C10.1865 14.0483 9.46152 13.8284 8.84483 13.4164C8.22815 13.0043 7.7475 12.4186 7.46367 11.7334C7.17985 11.0482 7.10558 10.2942 7.25028 9.56675C7.39497 8.83932 7.75213 8.17114 8.27657 7.64669C8.80102 7.12224 9.46921 6.76509 10.1966 6.6204C10.9241 6.4757 11.6781 6.54996 12.3633 6.83379C13.0485 7.11762 13.6342 7.59827 14.0462 8.21495C14.4583 8.83164 14.6782 9.55666 14.6782 10.2983C14.6782 11.2929 14.2831 12.2467 13.5799 12.95C12.8766 13.6533 11.9228 14.0483 10.9282 14.0483ZM14.9907 7.17334C14.8053 7.17334 14.624 7.11836 14.4699 7.01534C14.3157 6.91233 14.1955 6.76591 14.1246 6.59461C14.0536 6.4233 14.0351 6.2348 14.0712 6.05294C14.1074 5.87109 14.1967 5.70404 14.3278 5.57293C14.4589 5.44182 14.626 5.35253 14.8078 5.31635C14.9897 5.28018 15.1782 5.29875 15.3495 5.3697C15.5208 5.44066 15.6672 5.56082 15.7702 5.71499C15.8732 5.86916 15.9282 6.05042 15.9282 6.23584C15.9282 6.48448 15.8295 6.72294 15.6536 6.89875C15.4778 7.07457 15.2394 7.17334 14.9907 7.17334Z" fill="white"/>
</svg>
