<svg width="21" height="21" viewBox="0 0 21 21" fill="none" xmlns="http://www.w3.org/2000/svg">
<path d="M18.9829 5.74951C18.9111 5.46149 18.7705 5.19516 18.5732 4.97338C18.3759 4.75159 18.1278 4.58094 17.8501 4.47608C15.1782 3.44483 10.9126 3.45264 10.6782 3.45264C10.4438 3.45264 6.17822 3.44483 3.50635 4.47608C3.22864 4.58094 2.98051 4.75159 2.78321 4.97338C2.58592 5.19516 2.44534 5.46149 2.37354 5.74951C2.17041 6.52295 1.92822 7.94483 1.92822 10.2964C1.92822 12.648 2.17041 14.0698 2.37354 14.8433C2.44534 15.1313 2.58592 15.3976 2.78321 15.6194C2.98051 15.8412 3.22864 16.0118 3.50635 16.1167C6.06885 17.1089 10.0845 17.1401 10.6235 17.1401H10.7329C11.272 17.1401 15.2876 17.1089 17.8501 16.1167C18.1278 16.0118 18.3759 15.8412 18.5732 15.6194C18.7705 15.3976 18.9111 15.1313 18.9829 14.8433C19.186 14.0698 19.4282 12.648 19.4282 10.2964C19.4282 7.94483 19.186 6.52295 18.9829 5.74951ZM13.3501 10.5542L9.6001 13.0542C9.55036 13.0908 9.48996 13.11 9.42822 13.1089C9.37647 13.107 9.32578 13.0936 9.27979 13.0698C9.22985 13.0438 9.18809 13.0045 9.15913 12.9563C9.13017 12.908 9.11514 12.8527 9.11572 12.7964V7.79639C9.11514 7.7401 9.13017 7.68476 9.15913 7.63649C9.18809 7.58823 9.22985 7.54893 9.27979 7.52295C9.32961 7.49637 9.3857 7.48379 9.4421 7.48654C9.4985 7.48929 9.5531 7.50727 9.6001 7.53858L13.3501 10.0386C13.3937 10.066 13.4296 10.1041 13.4545 10.1491C13.4794 10.1942 13.4924 10.2449 13.4924 10.2964C13.4924 10.3479 13.4794 10.3985 13.4545 10.4436C13.4296 10.4887 13.3937 10.5268 13.3501 10.5542Z" fill="white"/>
</svg>
