<svg width="21" height="21" viewBox="0 0 21 21" fill="none" xmlns="http://www.w3.org/2000/svg">
<path d="M19.4984 13.5661L16.8421 4.72231C16.7911 4.54344 16.6997 4.37863 16.5752 4.24051C16.4506 4.10238 16.296 3.99461 16.1234 3.92544H16.0765L16.1234 3.90981C15.2518 3.56059 14.3494 3.2938 13.428 3.11294C13.3475 3.09702 13.2646 3.09712 13.1841 3.11324C13.1036 3.12936 13.0271 3.16119 12.9589 3.20689C12.8907 3.2526 12.8322 3.31129 12.7867 3.37962C12.7412 3.44795 12.7096 3.52458 12.6937 3.60512C12.6766 3.68519 12.6756 3.76787 12.6908 3.84832C12.7059 3.92878 12.737 4.00541 12.7821 4.07376C12.8271 4.1421 12.8854 4.2008 12.9533 4.24642C13.0213 4.29204 13.0977 4.32368 13.178 4.3395C13.5296 4.40981 13.8734 4.49575 14.2093 4.5895C14.333 4.65372 14.4317 4.75748 14.4897 4.88425C14.5477 5.01103 14.5617 5.15356 14.5293 5.28917C14.497 5.42478 14.4202 5.54568 14.3113 5.63266C14.2023 5.71964 14.0674 5.7677 13.928 5.76919H13.8655C12.6616 5.45521 11.4222 5.29766 10.178 5.30044C8.96309 5.29681 7.75268 5.4491 6.57648 5.75356C6.42681 5.79305 6.26781 5.7756 6.13027 5.70458C5.99273 5.63356 5.88645 5.51402 5.83199 5.36913C5.77753 5.22423 5.77878 5.06428 5.83549 4.92025C5.89221 4.77622 6.00035 4.65836 6.13898 4.5895H6.1468C6.48273 4.49575 6.82648 4.40981 7.17804 4.3395C7.25859 4.32361 7.33522 4.29201 7.40354 4.2465C7.47187 4.201 7.53057 4.14247 7.57627 4.07427C7.62198 4.00608 7.6538 3.92954 7.66993 3.84905C7.68605 3.76855 7.68615 3.68566 7.67023 3.60512C7.63628 3.44347 7.54046 3.30149 7.40324 3.20953C7.26603 3.11756 7.09829 3.0829 6.93586 3.11294C6.01119 3.29784 5.10611 3.56989 4.23273 3.92544C4.06006 3.99461 3.90551 4.10238 3.78093 4.24051C3.65635 4.37863 3.56503 4.54344 3.51398 4.72231L0.857733 13.5661C0.788823 13.7973 0.788301 14.0435 0.856229 14.275C0.924156 14.5065 1.05763 14.7134 1.24055 14.8707C1.31241 14.94 1.38805 15.0052 1.46711 15.0661H1.47492C2.74055 16.0973 4.40461 16.8864 6.27961 17.3395C6.3276 17.3549 6.37766 17.3628 6.42805 17.3629C6.58257 17.3654 6.73252 17.3105 6.84895 17.2089C6.96538 17.1072 7.04003 16.9661 7.05848 16.8126C7.07693 16.6592 7.03788 16.5044 6.94886 16.378C6.85985 16.2517 6.72718 16.1628 6.57648 16.1286C5.73355 15.9249 4.91405 15.6343 4.13117 15.2614C4.02402 15.161 3.95564 15.026 3.93803 14.8803C3.92041 14.7345 3.95469 14.5872 4.03485 14.4641C4.11501 14.3411 4.23593 14.2502 4.37639 14.2074C4.51686 14.1646 4.66791 14.1727 4.80305 14.2301C6.28742 14.8864 8.15461 15.3004 10.178 15.3004C12.2015 15.3004 14.0687 14.8864 15.553 14.2301C15.6882 14.1727 15.8392 14.1646 15.9797 14.2074C16.1202 14.2502 16.2411 14.3411 16.3212 14.4641C16.4014 14.5872 16.4357 14.7345 16.4181 14.8803C16.4005 15.026 16.3321 15.161 16.2249 15.2614C15.442 15.6343 14.6225 15.9249 13.7796 16.1286C13.6289 16.1628 13.4962 16.2517 13.4072 16.378C13.3182 16.5044 13.2792 16.6592 13.2976 16.8126C13.3161 16.9661 13.3907 17.1072 13.5071 17.2089C13.6236 17.3105 13.7735 17.3654 13.928 17.3629C13.9784 17.3628 14.0285 17.3549 14.0765 17.3395C15.9515 16.8864 17.6155 16.0973 18.8812 15.0661H18.889C18.968 15.0052 19.0437 14.94 19.1155 14.8707C19.2985 14.7134 19.4319 14.5065 19.4999 14.275C19.5678 14.0435 19.5673 13.7973 19.4984 13.5661ZM7.67805 12.4879C7.49263 12.4879 7.31137 12.433 7.1572 12.3299C7.00303 12.2269 6.88286 12.0805 6.81191 11.9092C6.74095 11.7379 6.72238 11.5494 6.75856 11.3675C6.79473 11.1857 6.88402 11.0186 7.01513 10.8875C7.14624 10.7564 7.31329 10.6671 7.49515 10.6309C7.677 10.5948 7.86551 10.6133 8.03681 10.6843C8.20812 10.7553 8.35453 10.8754 8.45755 11.0296C8.56056 11.1838 8.61555 11.365 8.61555 11.5504C8.61554 11.7991 8.51677 12.0375 8.34096 12.2133C8.16514 12.3892 7.92669 12.4879 7.67805 12.4879ZM12.678 12.4879C12.4926 12.4879 12.3114 12.433 12.1572 12.3299C12.003 12.2269 11.8829 12.0805 11.8119 11.9092C11.741 11.7379 11.7224 11.5494 11.7586 11.3675C11.7947 11.1857 11.884 11.0186 12.0151 10.8875C12.1462 10.7564 12.3133 10.6671 12.4951 10.6309C12.677 10.5948 12.8655 10.6133 13.0368 10.6843C13.2081 10.7553 13.3545 10.8754 13.4575 11.0296C13.5606 11.1838 13.6155 11.365 13.6155 11.5504C13.6155 11.7991 13.5168 12.0375 13.341 12.2133C13.1651 12.3892 12.9267 12.4879 12.678 12.4879Z" fill="white"/>
</svg>
