<svg width="21" height="21" viewBox="0 0 21 21" fill="none" xmlns="http://www.w3.org/2000/svg">
<path d="M19.6237 6.36873L17.2644 8.72029C16.7956 14.1812 12.1862 18.4234 6.67843 18.4234C5.54562 18.4234 4.60812 18.2437 3.89718 17.8922C3.32687 17.6031 3.09249 17.2984 3.02999 17.2047C2.97828 17.1261 2.94496 17.0369 2.93251 16.9437C2.92006 16.8505 2.92881 16.7557 2.95809 16.6663C2.98738 16.577 3.03645 16.4954 3.10166 16.4276C3.16686 16.3598 3.24651 16.3077 3.33468 16.275C3.35031 16.2672 5.19406 15.564 6.38937 14.2125C5.64807 13.6847 4.99652 13.041 4.45968 12.3062C3.38937 10.8531 2.25656 8.32966 2.93624 4.56404C2.95761 4.45209 3.00881 4.34799 3.08444 4.26273C3.16008 4.17747 3.25733 4.11423 3.36593 4.07966C3.47488 4.04399 3.59154 4.03897 3.70315 4.06515C3.81476 4.09133 3.91702 4.1477 3.99874 4.2281C4.02218 4.25935 6.62374 6.82185 9.80343 7.64998V7.17341C9.8065 6.67788 9.90714 6.18779 10.0996 5.73115C10.2921 5.27451 10.5726 4.86025 10.9252 4.51203C11.2778 4.16381 11.6955 3.88845 12.1545 3.70166C12.6135 3.51487 13.1048 3.42033 13.6003 3.42341C14.2507 3.43269 14.8876 3.61027 15.4489 3.93887C16.0103 4.26746 16.4769 4.73585 16.8034 5.29841H19.1784C19.3018 5.29803 19.4226 5.33417 19.5254 5.4023C19.6283 5.47042 19.7087 5.56747 19.7566 5.68123C19.8016 5.79667 19.813 5.9225 19.7895 6.04417C19.766 6.16583 19.7085 6.27836 19.6237 6.36873Z" fill="white"/>
</svg>
