<svg width="21" height="21" viewBox="0 0 21 21" fill="none" xmlns="http://www.w3.org/2000/svg">
<path d="M19.5537 8.42572C19.5532 7.94716 19.4154 7.47879 19.1566 7.07625C18.8978 6.6737 18.5289 6.3539 18.0937 6.15481C17.6585 5.95573 17.1753 5.88574 16.7015 5.95315C16.2278 6.02056 15.7833 6.22254 15.4209 6.5351C14.1084 5.83978 12.5459 5.41791 10.9131 5.32416L11.3193 2.88666L13.0224 3.15228C13.1023 3.59155 13.3351 3.98838 13.6795 4.27247C14.024 4.55656 14.4578 4.7096 14.9043 4.70447C15.3507 4.69933 15.781 4.53637 16.1188 4.24443C16.4566 3.9525 16.6802 3.55043 16.7499 3.10944C16.8197 2.66845 16.7312 2.21699 16.5 1.83503C16.2688 1.45306 15.9099 1.16523 15.4869 1.02252C15.0638 0.879812 14.6039 0.891425 14.1886 1.05531C13.7733 1.21919 13.4294 1.52476 13.2178 1.91791L10.8974 1.55853C10.7349 1.53372 10.5692 1.57392 10.4361 1.67043C10.3031 1.76694 10.2134 1.91199 10.1865 2.07416L9.64744 5.31635C7.94431 5.38666 6.30369 5.80853 4.9365 6.5351C4.43821 6.12312 3.79969 5.92021 3.15499 5.96896C2.51028 6.01772 1.90954 6.31435 1.47887 6.79657C1.0482 7.2788 0.821104 7.90912 0.845252 8.55522C0.869399 9.20131 1.14291 9.81292 1.60838 10.2617C1.4902 10.6812 1.42974 11.1149 1.42869 11.5507C1.42869 13.2617 2.36619 14.8632 4.07713 16.0429C5.78806 17.2226 7.88181 17.8007 10.1787 17.8007C12.4756 17.8007 14.6396 17.1757 16.2803 16.0429C17.9209 14.9101 18.9287 13.2617 18.9287 11.5507C18.9282 11.1174 18.8677 10.6862 18.749 10.2695C19.002 10.0335 19.204 9.74809 19.3424 9.43097C19.4808 9.11385 19.5527 8.77172 19.5537 8.42572ZM5.80369 10.6132C5.80369 10.366 5.877 10.1243 6.01435 9.91876C6.1517 9.7132 6.34693 9.55298 6.57534 9.45837C6.80374 9.36376 7.05508 9.33901 7.29755 9.38724C7.54003 9.43547 7.76276 9.55452 7.93757 9.72934C8.11239 9.90415 8.23144 10.1269 8.27967 10.3694C8.3279 10.6118 8.30315 10.8632 8.20854 11.0916C8.11393 11.32 7.95371 11.5152 7.74815 11.6526C7.54259 11.7899 7.30092 11.8632 7.05369 11.8632C6.72217 11.8632 6.40423 11.7315 6.16981 11.4971C5.93539 11.2627 5.80369 10.9447 5.80369 10.6132ZM13.0459 14.6054C12.1592 15.0624 11.1762 15.3009 10.1787 15.3009C9.18119 15.3009 8.19814 15.0624 7.3115 14.6054C7.17529 14.5238 7.07523 14.3935 7.03162 14.2408C6.98802 14.0882 7.00416 13.9246 7.07674 13.7834C7.14933 13.6422 7.27294 13.534 7.42246 13.4806C7.57198 13.4272 7.73622 13.4327 7.88181 13.496C8.59215 13.862 9.37964 14.0529 10.1787 14.0529C10.9777 14.0529 11.7652 13.862 12.4756 13.496C12.6212 13.4327 12.7854 13.4272 12.9349 13.4806C13.0844 13.534 13.208 13.6422 13.2806 13.7834C13.3532 13.9246 13.3694 14.0882 13.3258 14.2408C13.2822 14.3935 13.1821 14.5238 13.0459 14.6054ZM13.3037 11.8632C13.0565 11.8632 12.8148 11.7899 12.6092 11.6526C12.4037 11.5152 12.2435 11.32 12.1488 11.0916C12.0542 10.8632 12.0295 10.6118 12.0777 10.3694C12.1259 10.1269 12.245 9.90415 12.4198 9.72934C12.5946 9.55452 12.8174 9.43547 13.0598 9.38724C13.3023 9.33901 13.5536 9.36376 13.782 9.45837C14.0105 9.55298 14.2057 9.7132 14.343 9.91876C14.4804 10.1243 14.5537 10.366 14.5537 10.6132C14.5537 10.9447 14.422 11.2627 14.1876 11.4971C13.9532 11.7315 13.6352 11.8632 13.3037 11.8632Z" fill="white"/>
</svg>
