<svg width="38" height="46" viewBox="0 0 38 46" fill="none" xmlns="http://www.w3.org/2000/svg">
<rect opacity="0.2" x="13" y="0.875977" width="24.7006" height="24.7006" rx="12.3503" fill="white"/>
<path d="M16.5 35.2432C22.0228 35.2432 26.5 30.766 26.5 25.2432C26.5 19.7203 22.0228 15.2432 16.5 15.2432C10.9772 15.2432 6.5 19.7203 6.5 25.2432C6.5 30.766 10.9772 35.2432 16.5 35.2432Z" stroke="white" stroke-width="2" stroke-linecap="round" stroke-linejoin="round"/>
<path d="M16.5 31.2432C19.8137 31.2432 22.5 28.5569 22.5 25.2432C22.5 21.9295 19.8137 19.2432 16.5 19.2432C13.1863 19.2432 10.5 21.9295 10.5 25.2432C10.5 28.5569 13.1863 31.2432 16.5 31.2432Z" stroke="white" stroke-width="2" stroke-linecap="round" stroke-linejoin="round"/>
<path d="M22.5 33.2432V43.2432L16.5 40.2432L10.5 43.2432V33.2432" stroke="white" stroke-width="2" stroke-linecap="round" stroke-linejoin="round"/>
</svg>
