<svg width="42" height="34" viewBox="0 0 42 34" fill="none" xmlns="http://www.w3.org/2000/svg">
<path opacity="0.5" d="M28.5879 18.2754C27.547 18.7605 26.421 19.0368 25.2738 19.0888C23.4959 19.176 21.7321 18.7341 20.2053 17.8189C18.6786 16.9037 17.4575 15.5563 16.6966 13.9471C15.9356 12.338 15.6689 10.5393 15.9302 8.77853C16.1914 7.01778 16.969 5.37405 18.1644 4.0552C19.3599 2.73635 20.9196 1.80161 22.6463 1.3692C24.373 0.93678 26.1892 1.0261 27.8651 1.62587C29.5411 2.22564 31.0015 3.30891 32.0618 4.7387C33.1221 6.1685 33.7346 7.88059 33.8219 9.65848C33.8824 10.8053 33.7177 11.9529 33.3368 13.0363L35.0657 14.6035L35.2128 17.5999L38.2091 17.4528L38.3562 20.4492L41.3526 20.3022L41.5976 25.2962L36.6037 25.5412L28.5879 18.2754Z" fill="white"/>
<path d="M22.5 12.9238C23.3284 12.9238 24 12.2523 24 11.4238C24 10.5954 23.3284 9.92383 22.5 9.92383C21.6716 9.92383 21 10.5954 21 11.4238C21 12.2523 21.6716 12.9238 22.5 12.9238Z" fill="white"/>
<path d="M11.65 17.2738C11.2165 16.2104 10.9957 15.0722 11 13.9238C11 12.1438 11.5278 10.4037 12.5168 8.9237C13.5057 7.44366 14.9113 6.29011 16.5558 5.60892C18.2004 4.92773 20.01 4.7495 21.7558 5.09676C23.5016 5.44403 25.1053 6.3012 26.364 7.55987C27.6226 8.81854 28.4798 10.4222 28.8271 12.168C29.1743 13.9138 28.9961 15.7234 28.3149 17.368C27.6337 19.0125 26.4802 20.4181 25.0001 21.4071C23.5201 22.396 21.78 22.9238 20 22.9238C18.8516 22.9281 17.7135 22.7073 16.65 22.2738V22.2738L15 23.9238H12V26.9238H9V29.9238H4V24.9238L11.65 17.2738Z" stroke="white" stroke-width="2" stroke-linecap="round" stroke-linejoin="round"/>
</svg>
