<svg width="25" height="25" viewBox="0 0 25 25" fill="none" xmlns="http://www.w3.org/2000/svg">
<path d="M12.1839 16.4082C14.255 16.4082 15.9339 14.7293 15.9339 12.6582C15.9339 10.5871 14.255 8.9082 12.1839 8.9082C10.1128 8.9082 8.4339 10.5871 8.4339 12.6582C8.4339 14.7293 10.1128 16.4082 12.1839 16.4082Z" stroke="#211F2D" stroke-width="2" stroke-miterlimit="10"/>
<path d="M16.3089 4.0332H8.0589C5.57362 4.0332 3.5589 6.04792 3.5589 8.5332V16.7832C3.5589 19.2685 5.57362 21.2832 8.0589 21.2832H16.3089C18.7942 21.2832 20.8089 19.2685 20.8089 16.7832V8.5332C20.8089 6.04792 18.7942 4.0332 16.3089 4.0332Z" stroke="#211F2D" stroke-width="2" stroke-linecap="round" stroke-linejoin="round"/>
<path d="M17.0589 8.9082C17.6802 8.9082 18.1839 8.40452 18.1839 7.7832C18.1839 7.16188 17.6802 6.6582 17.0589 6.6582C16.4376 6.6582 15.9339 7.16188 15.9339 7.7832C15.9339 8.40452 16.4376 8.9082 17.0589 8.9082Z" fill="#211F2D"/>
</svg>
