<svg width="25" height="25" viewBox="0 0 25 25" fill="none" xmlns="http://www.w3.org/2000/svg">
<path d="M12.7 8.90854C12.7 6.84604 14.4343 5.13042 16.4968 5.15854C17.2191 5.16688 17.9237 5.38366 18.5257 5.7828C19.1278 6.18195 19.6017 6.74648 19.8906 7.40854H23.2L20.1718 10.4367C19.9764 13.4785 18.6299 16.3316 16.4061 18.4162C14.1823 20.5007 11.248 21.66 8.19997 21.6585C5.19997 21.6585 4.44997 20.5335 4.44997 20.5335C4.44997 20.5335 7.44997 19.4085 8.94997 17.1585C8.94997 17.1585 2.94997 14.1585 4.44997 5.90854C4.44997 5.90854 8.19997 9.65854 12.7 10.4085V8.90854Z" stroke="#211F2D" stroke-width="2" stroke-linecap="round" stroke-linejoin="round"/>
</svg>
