<svg width="25" height="25" viewBox="0 0 25 25" fill="none" xmlns="http://www.w3.org/2000/svg">
<path d="M9.08667 15.2832C9.70799 15.2832 10.2117 14.7795 10.2117 14.1582C10.2117 13.5369 9.70799 13.0332 9.08667 13.0332C8.46535 13.0332 7.96167 13.5369 7.96167 14.1582C7.96167 14.7795 8.46535 15.2832 9.08667 15.2832Z" fill="#211F2D"/>
<path d="M15.0867 15.2832C15.708 15.2832 16.2117 14.7795 16.2117 14.1582C16.2117 13.5369 15.708 13.0332 15.0867 13.0332C14.4653 13.0332 13.9617 13.5369 13.9617 14.1582C13.9617 14.7795 14.4653 15.2832 15.0867 15.2832Z" fill="#211F2D"/>
<path d="M7.06171 8.15767C8.68757 7.64811 10.3829 7.39508 12.0867 7.40767C13.7905 7.39508 15.4858 7.64811 17.1117 8.15767" stroke="#211F2D" stroke-width="2" stroke-linecap="round" stroke-linejoin="round"/>
<path d="M17.1117 17.1582C15.4858 17.6678 13.7905 17.9208 12.0867 17.9082C10.3829 17.9208 8.68757 17.6678 7.06171 17.1582" stroke="#211F2D" stroke-width="2" stroke-linecap="round" stroke-linejoin="round"/>
<path d="M14.6179 17.7305L15.7523 19.9805C15.8252 20.1339 15.9494 20.2571 16.1034 20.329C16.2573 20.4008 16.4315 20.4168 16.596 20.3742C18.8929 19.8117 20.8804 18.8367 22.3241 17.5805C22.433 17.4844 22.512 17.3592 22.5519 17.2197C22.5918 17.0801 22.5908 16.932 22.5491 16.793L19.371 6.18047C19.3401 6.07187 19.2841 5.97203 19.2076 5.88899C19.131 5.80595 19.0361 5.74203 18.9304 5.70235C18.0325 5.33398 17.1039 5.04536 16.1554 4.83985C15.9731 4.79993 15.7825 4.82852 15.62 4.92017C15.4574 5.01181 15.3343 5.1601 15.2741 5.33672L14.5335 7.57735" stroke="#211F2D" stroke-width="2" stroke-linecap="round" stroke-linejoin="round"/>
<path d="M9.55552 17.7305L8.42114 19.9805C8.34815 20.1339 8.22401 20.2571 8.07004 20.329C7.91607 20.4008 7.74188 20.4168 7.57739 20.3742C5.28052 19.8117 3.29302 18.8367 1.84927 17.5805C1.74042 17.4844 1.66138 17.3592 1.6215 17.2197C1.58163 17.0801 1.58259 16.932 1.62427 16.793L4.80239 6.18047C4.83332 6.07187 4.8893 5.97203 4.96583 5.88899C5.04235 5.80595 5.1373 5.74203 5.24302 5.70235C6.14092 5.33398 7.0695 5.04536 8.01802 4.83985C8.2003 4.79993 8.39089 4.82852 8.55344 4.92017C8.71598 5.01181 8.83909 5.1601 8.89927 5.33672L9.63989 7.57735" stroke="#211F2D" stroke-width="2" stroke-linecap="round" stroke-linejoin="round"/>
<path d="M9.08667 15.2832C9.70799 15.2832 10.2117 14.7795 10.2117 14.1582C10.2117 13.5369 9.70799 13.0332 9.08667 13.0332C8.46535 13.0332 7.96167 13.5369 7.96167 14.1582C7.96167 14.7795 8.46535 15.2832 9.08667 15.2832Z" fill="#211F2D"/>
<path d="M15.0867 15.2832C15.708 15.2832 16.2117 14.7795 16.2117 14.1582C16.2117 13.5369 15.708 13.0332 15.0867 13.0332C14.4653 13.0332 13.9617 13.5369 13.9617 14.1582C13.9617 14.7795 14.4653 15.2832 15.0867 15.2832Z" fill="#211F2D"/>
<path d="M7.06171 8.15767C8.68757 7.64811 10.3829 7.39508 12.0867 7.40767C13.7905 7.39508 15.4858 7.64811 17.1117 8.15767" stroke="#211F2D" stroke-width="2" stroke-linecap="round" stroke-linejoin="round"/>
<path d="M17.1117 17.1582C15.4858 17.6678 13.7905 17.9208 12.0867 17.9082C10.3829 17.9208 8.68757 17.6678 7.06171 17.1582" stroke="#211F2D" stroke-width="2" stroke-linecap="round" stroke-linejoin="round"/>
<path d="M14.6179 17.7305L15.7523 19.9805C15.8252 20.1339 15.9494 20.2571 16.1034 20.329C16.2573 20.4008 16.4315 20.4168 16.596 20.3742C18.8929 19.8117 20.8804 18.8367 22.3241 17.5805C22.433 17.4844 22.512 17.3592 22.5519 17.2197C22.5918 17.0801 22.5908 16.932 22.5491 16.793L19.371 6.18047C19.3401 6.07187 19.2841 5.97203 19.2076 5.88899C19.131 5.80595 19.0361 5.74203 18.9304 5.70235C18.0325 5.33398 17.1039 5.04536 16.1554 4.83985C15.9731 4.79993 15.7825 4.82852 15.62 4.92017C15.4574 5.01181 15.3343 5.1601 15.2741 5.33672L14.5335 7.57735" stroke="#211F2D" stroke-width="2" stroke-linecap="round" stroke-linejoin="round"/>
<path d="M9.55552 17.7305L8.42114 19.9805C8.34815 20.1339 8.22401 20.2571 8.07004 20.329C7.91607 20.4008 7.74188 20.4168 7.57739 20.3742C5.28052 19.8117 3.29302 18.8367 1.84927 17.5805C1.74042 17.4844 1.66138 17.3592 1.6215 17.2197C1.58163 17.0801 1.58259 16.932 1.62427 16.793L4.80239 6.18047C4.83332 6.07187 4.8893 5.97203 4.96583 5.88899C5.04235 5.80595 5.1373 5.74203 5.24302 5.70235C6.14092 5.33398 7.0695 5.04536 8.01802 4.83985C8.2003 4.79993 8.39089 4.82852 8.55344 4.92017C8.71598 5.01181 8.83909 5.1601 8.89927 5.33672L9.63989 7.57735" stroke="#211F2D" stroke-width="2" stroke-linecap="round" stroke-linejoin="round"/>
</svg>
