<svg width="62" height="54" viewBox="0 0 62 54" fill="none" xmlns="http://www.w3.org/2000/svg">
<rect x="17" y="13.9421" width="27.695" height="27.695" rx="5.19281" fill="white"/>
<path opacity="0.5" d="M22.7713 7.79054H48.5338C49.3469 7.79054 50.0062 7.13133 50.0062 6.31815V4.42597C50.0062 3.12436 51.5712 2.46292 52.5047 3.37001L59.0728 9.75253C59.6679 10.3308 59.6679 11.2862 59.0728 11.8644L52.5047 18.247C51.5712 19.154 50.0062 18.4926 50.0062 17.191V13.2461" stroke="white" stroke-width="3.5"/>
<path opacity="0.5" d="M39.3883 46.6758L13.6258 46.6758C12.8126 46.6758 12.1534 47.335 12.1534 48.1482L12.1534 50.0403C12.1534 51.342 10.5883 52.0034 9.65486 51.0963L3.08667 44.7138C2.49163 44.1356 2.49163 43.1801 3.08667 42.6019L9.65486 36.2194C10.5883 35.3123 12.1534 35.9737 12.1534 37.2753L12.1534 41.2203" stroke="white" stroke-width="3.5"/>
<path d="M30.4172 34.974V33.0305C29.6515 32.9598 28.9212 32.8126 28.2263 32.5888C27.5431 32.365 26.96 32.0646 26.4771 31.6877L27.2545 29.5321C27.7963 29.9208 28.4088 30.227 29.092 30.4509C29.7752 30.6747 30.4937 30.7866 31.2476 30.7866C32.0486 30.7866 32.6199 30.657 32.9615 30.3978C33.3148 30.1387 33.4915 29.8207 33.4915 29.4437C33.4915 29.1139 33.3737 28.843 33.1382 28.631C32.9026 28.4189 32.4785 28.2482 31.866 28.1186L29.9225 27.6945C27.7787 27.2234 26.7067 26.0808 26.7067 24.2668C26.7067 23.2774 27.0425 22.441 27.7139 21.7578C28.3853 21.0747 29.2864 20.6447 30.4172 20.468V18.4538H32.5198V20.4327C33.144 20.5034 33.7389 20.6506 34.3043 20.8744C34.8697 21.0982 35.3467 21.3986 35.7355 21.7755L34.958 23.7897C34.0746 23.0241 32.9438 22.6413 31.5656 22.6413C30.8942 22.6413 30.3583 22.7826 29.9578 23.0653C29.5691 23.348 29.3747 23.7132 29.3747 24.1608C29.3747 24.4906 29.4925 24.7556 29.7281 24.9559C29.9637 25.1561 30.3642 25.321 30.9296 25.4506L32.8555 25.8747C35.0699 26.3576 36.1772 27.4766 36.1772 29.2317C36.1772 30.2329 35.8356 31.0575 35.1524 31.7053C34.481 32.3532 33.6034 32.7713 32.5198 32.9598V34.974H30.4172Z" fill="#6747ED"/>
</svg>
