<svg width="37" height="28" viewBox="0 0 37 28" fill="none" xmlns="http://www.w3.org/2000/svg">
<path d="M29.75 13.8953L27.25 16.8328L21.5 22.5828C21.3433 22.7293 21.1534 22.8357 20.9466 22.8928C20.7398 22.95 20.5222 22.9562 20.3125 22.9109L11.25 20.6453C11.0845 20.5991 10.9302 20.5193 10.7969 20.4109L2.25 13.739" stroke="#B3A3F6" stroke-width="3.5" stroke-linecap="round" stroke-linejoin="round"/>
<path d="M27.2501 16.8328L20.3751 11.8328L18.3751 13.3328C17.5086 13.9795 16.4564 14.3289 15.3751 14.3289C14.2939 14.3289 13.2416 13.9795 12.3751 13.3328L11.5314 12.6921C11.3887 12.5837 11.2707 12.4461 11.1852 12.2886C11.0996 12.1311 11.0485 11.9572 11.0352 11.7785C11.0219 11.5998 11.0468 11.4202 11.108 11.2518C11.1693 11.0834 11.2657 10.9299 11.3908 10.8015L17.5158 4.69215C17.6308 4.57766 17.7673 4.48698 17.9175 4.42532C18.0676 4.36365 18.2285 4.3322 18.3908 4.33277H24.7501" stroke="#B3A3F6" stroke-width="3.5" stroke-linecap="round" stroke-linejoin="round"/>
<path d="M7.34375 4.16098L15.3594 1.81723C15.6442 1.73555 15.9488 1.7577 16.2187 1.87973L21.625 4.33286" stroke="#B3A3F6" stroke-width="3.5" stroke-linecap="round" stroke-linejoin="round"/>
<path d="M13.5 26.2078L8.79688 25.0203C8.60522 24.977 8.42776 24.8856 8.28125 24.7546L4.75 21.6921" stroke="#B3A3F6" stroke-width="3.5" stroke-linecap="round" stroke-linejoin="round"/>
<path d="M33.6094 11.9733L29.75 13.8951L24.75 4.33263L28.6562 2.37951C28.9465 2.23153 29.2836 2.20434 29.5938 2.30386C29.9041 2.40338 30.1624 2.62153 30.3125 2.91076L34.1562 10.2701C34.2342 10.4174 34.2819 10.5789 34.2965 10.7449C34.3112 10.9109 34.2925 11.0782 34.2415 11.2369C34.1906 11.3956 34.1084 11.5425 33.9998 11.6689C33.8913 11.7954 33.7585 11.8989 33.6094 11.9733Z" fill="white" stroke="white" stroke-width="3.5" stroke-linecap="round" stroke-linejoin="round"/>
</svg>
