<svg width="113" height="92" viewBox="0 0 113 92" fill="none" xmlns="http://www.w3.org/2000/svg">
<circle opacity="0.1" cx="57" cy="46" r="46" fill="#4B32C2"/>
<rect x="21" y="25" width="72" height="42" fill="#4B32C2"/>
<circle cx="56" cy="46" r="12" fill="#FBFBFD"/>
<path d="M55.7 54.74H56.98V53.12C60.14 52.98 61.86 51.08 61.86 48.92C61.86 45.82 59.12 45.24 56.98 44.64V41.54C57.54 41.74 57.92 42.2 58 42.94H61.66C61.48 40.4 59.72 39 56.98 38.78V37.16H55.7V38.78C52.98 38.96 50.88 40.44 50.88 42.94C50.88 46.08 53.56 46.68 55.7 47.24V50.4C55.02 50.18 54.62 49.68 54.54 48.86H50.9C51 51.44 52.98 52.86 55.7 53.1V54.74ZM58.28 49.04C58.28 49.78 57.78 50.32 56.98 50.46V47.62C57.76 47.92 58.28 48.32 58.28 49.04ZM54.5 42.78C54.5 42 54.96 41.56 55.7 41.44V44.22C54.98 43.9 54.5 43.48 54.5 42.78Z" fill="#E7C047"/>
<path opacity="0.5" d="M39.3882 72.8845L13.6257 72.8845C12.8126 72.8845 12.1534 73.5437 12.1534 74.3569L12.1534 76.2491C12.1534 77.5507 10.5883 78.2121 9.65485 77.305L3.08667 70.9225C2.49162 70.3443 2.49162 69.3888 3.08667 68.8106L9.65485 62.4281C10.5883 61.521 12.1534 62.1824 12.1534 63.4841L12.1534 67.429" stroke="#9A8DDD" stroke-width="3.5"/>
<path opacity="0.5" d="M74 17.8484L99.7625 17.8484C100.576 17.8484 101.235 17.1892 101.235 16.376V14.4838C101.235 13.1822 102.8 12.5208 103.733 13.4279L110.302 19.8104C110.897 20.3886 110.897 21.3441 110.302 21.9223L103.733 28.3048C102.8 29.2119 101.235 28.5505 101.235 27.2489V23.3039" stroke="#9A8DDD" stroke-width="3.5"/>
</svg>
