<svg width="92" height="92" viewBox="0 0 92 92" fill="none" xmlns="http://www.w3.org/2000/svg">
<circle opacity="0.1" cx="46" cy="46" r="46" fill="#4B32C2"/>
<rect x="5" y="14" width="56" height="70" fill="#9284DA"/>
<rect x="13" y="22" width="56" height="70" fill="#4B32C2"/>
<rect x="25" y="37" width="27" height="6" fill="#FBFBFD"/>
<rect x="25" y="48" width="19" height="6" fill="#FBFBFD"/>
<rect x="25" y="72" width="27" height="6" fill="#FBFBFD"/>
<path d="M27.5 61L28.0613 62.7275H29.8776L28.4082 63.7951L28.9695 65.5225L27.5 64.4549L26.0305 65.5225L26.5918 63.7951L25.1224 62.7275H26.9387L27.5 61Z" fill="#FBFBFD"/>
<path d="M33 61L33.449 62.7275H34.9021L33.7265 63.7951L34.1756 65.5225L33 64.4549L31.8244 65.5225L32.2735 63.7951L31.0979 62.7275H32.551L33 61Z" fill="#FBFBFD"/>
<path d="M38.5 61L39.0613 62.7275H40.8776L39.4082 63.7951L39.9695 65.5225L38.5 64.4549L37.0305 65.5225L37.5918 63.7951L36.1224 62.7275H37.9387L38.5 61Z" fill="#FBFBFD"/>
<path d="M44 61L44.449 62.7275H45.9021L44.7265 63.7951L45.1756 65.5225L44 64.4549L42.8244 65.5225L43.2735 63.7951L42.0979 62.7275H43.551L44 61Z" fill="#FBFBFD"/>
<path d="M49.5 61L50.0613 62.7275H51.8776L50.4082 63.7951L50.9695 65.5225L49.5 64.4549L48.0305 65.5225L48.5918 63.7951L47.1224 62.7275H48.9387L49.5 61Z" fill="#FBFBFD"/>
<rect x="57" y="46" width="30" height="30" rx="15" fill="#FBFBFD"/>
<rect x="61" y="50" width="22" height="22" rx="11" fill="#E7C047"/>
<path d="M71.5 53L73.1839 58.1824H78.6329L74.2245 61.3853L75.9084 66.5676L71.5 63.3647L67.0916 66.5676L68.7755 61.3853L64.3671 58.1824H69.8161L71.5 53Z" fill="white"/>
</svg>
