<svg width="92" height="92" viewBox="0 0 92 92" fill="none" xmlns="http://www.w3.org/2000/svg">
<circle opacity="0.1" cx="46" cy="46" r="46" fill="#4B32C2"/>
<path d="M60 25C57.6713 25 55.3746 25.5422 53.2918 26.5836C51.209 27.625 49.3972 29.1371 48 31C46.1111 28.4814 43.4775 26.621 40.4725 25.6823C37.4675 24.7436 34.2433 24.7742 31.2566 25.7698C28.2699 26.7653 25.6722 28.6754 23.8314 31.2293C21.9906 33.7833 21 36.8518 21 40C21 57.975 45.975 72.15 47.025 72.75C47.3225 72.9172 47.6587 73.0034 48 73C48.3416 73.0058 48.6784 72.9195 48.975 72.75C53.5742 70.0612 57.8881 66.9117 61.85 63.35C70.575 55.5 75 47.65 75 40C75 36.0218 73.4196 32.2064 70.6066 29.3934C67.7936 26.5804 63.9782 25 60 25Z" fill="#4B32C2"/>
<path d="M31.75 35.5C30.4401 35.5 29.1482 35.805 27.9766 36.3908C26.805 36.9766 25.7859 37.8271 25 38.875C23.9375 37.4583 22.4561 36.4118 20.7658 35.8838C19.0755 35.3558 17.2618 35.373 15.5818 35.933C13.9018 36.493 12.4406 37.5674 11.4051 39.004C10.3697 40.4406 9.8125 42.1666 9.8125 43.9375C9.8125 54.0484 23.8609 62.0219 24.4516 62.3594C24.6189 62.4534 24.808 62.5019 25 62.5C25.1921 62.5033 25.3816 62.4547 25.5484 62.3594C28.1355 60.8469 30.5621 59.0753 32.7906 57.0719C37.6984 52.6562 40.1875 48.2406 40.1875 43.9375C40.1875 41.6997 39.2986 39.5536 37.7162 37.9713C36.1339 36.3889 33.9878 35.5 31.75 35.5Z" fill="#E7C047"/>
</svg>
