<svg width="94" height="92" viewBox="0 0 94 92" fill="none" xmlns="http://www.w3.org/2000/svg">
<circle opacity="0.1" cx="46" cy="46" r="46" fill="#4B32C2"/>
<path opacity="0.9" d="M15 30L48 47.234V84L15 66.766V30Z" fill="#4B32C2"/>
<path opacity="0.58" d="M78 30L48 47.234V84L78 66.766V30Z" fill="#4B32C2"/>
<path d="M46.2614 13L15 29.9756L46.2614 49L78 30.561L46.2614 13Z" fill="#4B32C2"/>
<rect x="58" y="46" width="36" height="37" rx="18" fill="#FBFBFD"/>
<path fill-rule="evenodd" clip-rule="evenodd" d="M75.5006 55.1466C75.5216 55.2273 75.5513 55.7252 75.5666 56.253C75.5899 57.0602 75.5764 57.3197 75.4817 57.8847C75.2146 59.4767 74.5029 61.091 73.7796 61.7451L73.6027 61.905L73.6426 61.7451C73.863 60.8606 73.9021 60.1366 73.7553 59.6576C73.6565 59.3351 73.3026 58.7976 73.0546 58.5933L72.8799 58.4494L72.8662 58.5776C72.7945 59.2472 72.5727 59.7443 71.8451 60.8657C70.2972 63.2516 69.9012 64.4852 70.0196 66.5517C70.1218 68.3366 70.6998 69.7571 71.7259 70.7447C72.2827 71.2807 73.2483 71.9388 73.1643 71.7252C73.1442 71.6743 73.0992 71.4812 73.0643 71.2961C72.9737 70.8161 73.0914 70.366 73.5593 69.4027C73.9438 68.6114 74.0928 68.1842 74.0352 68.0379C73.9957 67.9373 74.0203 67.9369 74.2148 68.035C74.5636 68.2111 74.8119 68.6978 74.826 69.233L74.8323 69.4766L74.9115 69.13C75.2368 67.7056 75.6637 66.7236 76.2012 66.1628C76.7187 65.6229 76.7044 65.6161 76.7053 66.4026C76.7061 67.1727 76.7894 67.5557 77.084 68.1441C77.1869 68.3496 77.3574 68.6135 77.4627 68.7306L77.6543 68.9434L77.5762 68.6501C77.5332 68.4888 77.4983 68.2729 77.4986 68.1702C77.4994 67.9353 77.6574 67.5962 77.8447 67.4278C77.9773 67.3086 77.9886 67.3065 77.9891 67.4011C77.9899 67.5663 78.2267 68.0169 78.589 68.5428C79.2401 69.4877 79.4482 70.1152 79.3922 70.965C79.3746 71.2315 79.3262 71.5733 79.2846 71.7248L79.209 72L79.4961 71.8761C80.5474 71.4224 81.4652 70.6475 82.0316 69.7355C82.634 68.7656 83.0654 67.1761 82.9918 66.1974C82.9283 65.3524 82.6905 64.6122 82.0323 63.2114C81.1388 61.3098 80.9891 60.8819 80.9745 60.1875C80.9699 59.9738 80.9506 59.799 80.9315 59.7989C80.9124 59.7989 80.7438 59.8985 80.5569 60.0203C80.1588 60.2798 79.7784 60.7275 79.631 61.1101C79.4909 61.4735 79.3557 62.1286 79.349 62.476C79.3374 63.0793 79.2737 63.0331 79.1426 62.3262C78.5251 58.9963 77.3557 56.4457 75.9215 55.3006C75.7144 55.1353 75.5264 55 75.5037 55C75.4811 55 75.4796 55.066 75.5006 55.1466Z" fill="#E7C047"/>
</svg>
