<svg width="92" height="104" viewBox="0 0 92 104" fill="none" xmlns="http://www.w3.org/2000/svg">
<circle opacity="0.1" cx="46" cy="46" r="46" fill="#4B32C2"/>
<path d="M24.0134 41.7598H8.02958C7.67438 47.7981 10.3739 59.8748 24.0134 59.8748" stroke="#9A8DDD" stroke-width="7.10393"/>
<path d="M66.9921 41.7597H84.01C84.3882 47.9164 81.514 60.2299 66.9921 60.2299" stroke="#9A8DDD" stroke-width="7.10393"/>
<path fill-rule="evenodd" clip-rule="evenodd" d="M19.367 23.9999C19.3665 24.0626 19.3663 24.1252 19.3663 24.188V52.7709C19.3663 67.0912 30.9753 78.7002 45.2956 78.7002C59.616 78.7002 71.225 67.0913 71.225 52.7709V24.188C71.225 24.1253 71.2248 24.0626 71.2243 23.9999H19.367Z" fill="#4B32C2"/>
<rect x="41.3885" y="71.5962" width="7.81432" height="14.2079" fill="#4B32C2"/>
<rect x="32.8638" y="85.8042" width="24.8638" height="7.81432" fill="#9A8DDD"/>
<rect x="25.7598" y="95.7495" width="39.0716" height="7.81432" fill="#9A8DDD"/>
<rect x="34" y="36" width="22" height="22" rx="11" fill="#E7C047"/>
<path d="M45.5 39L47.1839 44.1824H52.6329L48.2245 47.3853L49.9084 52.5676L45.5 49.3647L41.0916 52.5676L42.7755 47.3853L38.3671 44.1824H43.8161L45.5 39Z" fill="white"/>
</svg>
